<svg xmlns="http://www.w3.org/2000/svg" viewBox="0 0 301.45 62.35"><defs><clipPath id="clip-path" transform="translate(-153.47 -588.65)"><path fill="none" d="M0 0h1190.55v841.89H0z"/></clipPath><style>.cls-4{fill:#fff}</style></defs><g id="Layer_2" data-name="Layer 2"><g id="Layer_1-2" data-name="Layer 1"><g id="Layer_2-2" data-name="Layer 2"><path d="M166.6 628.27v-16.65h-13.13v16.64a16.41 16.41 0 008.21 14.21l14.76 8.53v-15.15l-8.2-4.74a3.28 3.28 0 01-1.64-2.84" transform="translate(-153.47 -588.65)" fill="#c79b65"/><path d="M176.44 644.44l14.77-8.52a16.41 16.41 0 008.2-14.21v-33.06h-23v13.13h9.84v19.93a3.28 3.28 0 01-1.64 2.84l-8.2 4.74z" transform="translate(-153.47 -588.65)" fill="#e44e34"/><path class="cls-4" d="M22.97 0L0 22.97h22.97V0z"/><g clip-path="url(#clip-path)"><path class="cls-4" d="M317.5 607.75a5.63 5.63 0 10-5.51-5.58 5.38 5.38 0 005.51 5.58m0-14.27a8.64 8.64 0 11-8.76 8.69 8.45 8.45 0 018.76-8.69m74.01 2.73c3 0 4.5 1.92 4.76 4.44h-9.47c.47-2.6 2.27-4.44 4.71-4.44m7.77 7c0-.33.05-.67.05-1 0-5-2.58-8.69-8-8.69-4.62 0-8 3.7-8 8.69 0 .35 0 .69.05 1 .37 4.28 3.11 7.58 8.85 7.58a10.69 10.69 0 006.82-2.23l-1.29-2.36a9.2 9.2 0 01-5.44 1.82c-3.58 0-5.31-1.95-5.63-4.81h12.53z" transform="translate(-153.47 -588.65)"/><path class="cls-4" d="M260.17 5.27v6.72h-8.78V5.27h-3.27v16.41h3.27v-7.14h8.78v7.14h3.27V5.27h-3.27zm20.48 0h-14.96v2.91h5.85v13.5h3.26V8.18h5.85V5.27zm17.54 0h3.27v16.41h-3.27z"/><path class="cls-4" d="M335.7 601.7v-.14a1.48 1.48 0 00.58-.41l6.26-7.22h-3.67l-5.76 6.73h-1.3v-6.73h-3.27v16.41h3.27v-7.14h1.48l6.22 7.14h4.07l-7.27-8.21a1.51 1.51 0 00-.6-.43m105.87 6.16c-1 0-1.94-.08-1.94-.08v-5.92a8.35 8.35 0 012-.19c2.74 0 3.94 1.06 3.94 3s-1.08 3.16-4 3.16m.58-8.93a14.63 14.63 0 00-2.52.19v-5.21h-3.27v16.42s2.68.26 5.46.26c5.13 0 6.82-3.13 6.82-6s-1.51-5.65-6.49-5.65m-143.47 8.84c-3.3 0-5-2.41-5-5.58s1.93-5.68 5.23-5.68a4.55 4.55 0 014.27 4.67v4.53a5.67 5.67 0 01-4.53 2.06m4.66-13.83l-.09 2.07h-.21a6.17 6.17 0 00-4.75-2.51c-4.79 0-7.63 3.7-7.75 8.69s2.77 8.6 7.55 8.6a5.69 5.69 0 004.9-2.21h.21V610c0 3.18-2.2 4.43-4.68 4.43a10 10 0 01-5.16-1.52l-1.07 2.71a12.21 12.21 0 006.22 1.7c4.59 0 8-2.74 8-8v-15.4zm53.2 0v11.9a5.3 5.3 0 01-4.29 1.94c-3 0-4.37-2.41-4.3-5.58v-8.25h-3.17v8.25c-.11 4.92 1.86 8.6 6.64 8.6a5.63 5.63 0 004.9-2.21h.21V610c0 3.18-2.2 4.43-4.69 4.43a10 10 0 01-5.15-1.52l-1.07 2.71a12.21 12.21 0 006.22 1.7c4.59 0 8-2.74 8-8v-15.4zm21.48 0l-5.56 7.82a1.46 1.46 0 00-.21.44h-.12a1.59 1.59 0 00-.24-.44l-6-7.82h-3.08v16.41h3.27v-10.47a3.57 3.57 0 00-.15-1.14h.15l6 8.08h.14l5.58-8.08h.22a3.7 3.7 0 00-.15 1.13v10.47h3.27v-16.4zm-115.11 16.41v-16.41h5.51v7.64a7.62 7.62 0 01-.12 1.19h.24l6-8.83h5.27v16.41h-5.51v-7.71a5.52 5.52 0 01.12-1.07h-.24l-6 8.78zm-11.42-4.68a3.54 3.54 0 000-7.06 3.54 3.54 0 000 7.06m0-12.17c5.24 0 9.14 3.7 9.14 8.67s-3.91 8.62-9.14 8.62-9.09-3.71-9.09-8.62 3.91-8.67 9.09-8.67m-15.7.44s-4.6 6-4.78 6.21a1 1 0 00-.25.43h-.24a1.4 1.4 0 00-.26-.43l-5.09-6.2h-4.34v16.41h5.31v-6.89a5.12 5.12 0 00-.12-1.19h.24l4.27 4.9h.23l4-4.9h.24a5.08 5.08 0 00-.12 1.19v6.89h5.31v-16.42z" transform="translate(-153.47 -588.65)"/></g></g></g></g></svg>