<svg xmlns="http://www.w3.org/2000/svg" xmlns:xlink="http://www.w3.org/1999/xlink"><symbol id="attention-icon" viewBox="0 0 64 64"><style>.st0{fill:#134563}</style><g id="Icon-Exclamation" transform="translate(228 278)"><path class="st0" d="M-196-222.1c-13.2 0-23.9-10.7-23.9-23.9s10.7-23.9 23.9-23.9 23.9 10.7 23.9 23.9-10.7 23.9-23.9 23.9zm0-45.2c-11.7 0-21.3 9.6-21.3 21.3s9.6 21.3 21.3 21.3 21.3-9.6 21.3-21.3-9.6-21.3-21.3-21.3z" id="Fill-49"/><path class="st0" id="Fill-50" d="M-197.4-236.1h2.8v2.8h-2.8z"/><path class="st0" id="Fill-51" d="M-195.2-238.9h-1.6l-.6-11.3v-8.5h2.8v8.5l-.6 11.3"/></g></symbol><symbol id="chat-icon" viewBox="0 0 60 60"><path d="M10 25.465h13a1 1 0 100-2H10a1 1 0 100 2zM36 29.465H10a1 1 0 100 2h26a1 1 0 100-2zM36 35.465H10a1 1 0 100 2h26a1 1 0 100-2z"/><path d="M54.072 2.535l-34.142-.07c-3.27 0-5.93 2.66-5.93 5.93v5.124l-8.07.017c-3.27 0-5.93 2.66-5.93 5.93v21.141c0 3.27 2.66 5.929 5.93 5.929H12v10a1 1 0 001.74.673l9.704-10.675 16.626-.068c3.27 0 5.93-2.66 5.93-5.929v-.113l5.26 5.786a1.002 1.002 0 001.74-.673v-10h1.07c3.27 0 5.93-2.66 5.93-5.929V8.465a5.937 5.937 0 00-5.928-5.93zM44 40.536a3.934 3.934 0 01-3.934 3.929l-17.07.07a1 1 0 00-.736.327L14 53.949v-8.414a1 1 0 00-1-1H5.93A3.934 3.934 0 012 40.606V19.465a3.935 3.935 0 013.932-3.93L15 15.516h.002l25.068-.052a3.934 3.934 0 013.93 3.93v21.142zm14-10.93a3.934 3.934 0 01-3.93 3.929H52a1 1 0 00-1 1v8.414l-5-5.5V19.395c0-3.27-2.66-5.93-5.932-5.93L16 13.514v-5.12a3.934 3.934 0 013.928-3.93l34.141.07h.002a3.934 3.934 0 013.93 3.93v21.142z"/></symbol><symbol id="clouddown-icon"><path fill="#39B29D" d="M25.913 8.143C25.474 3.58 21.675 0 16.999 0c-3.62 0-6.718 2.148-8.146 5.23A4.434 4.434 0 007.5 5 4.501 4.501 0 003 9.5c0 .494.099.961.246 1.404C1.312 12.031 0 14.1 0 16.498a6.5 6.5 0 006.5 6.5V23h18v-.002a7.497 7.497 0 007.498-7.5c-.001-3.656-2.62-6.693-6.085-7.355zm-5.146 6.48l-3.781 3.727c-.763.765-1.233.74-1.974 0l-3.781-3.727c-.542-.885-.099-1.609.987-1.609h1.781V9.002c0-.553.448-1.002 1-1.002h2a1 1 0 011 1.002v4.012h1.779c1.086 0 1.532.724.989 1.609z"/></symbol><symbol id="document-icon" viewBox="0 0 516.375 516.375"><path d="M133.875 420.75H382.5v19.125H133.875zM133.875 133.875H267.75V153H133.875zM133.875 363.375H382.5V382.5H133.875zM133.875 76.5H267.75v19.125H133.875z"/><path d="M325.125 0H114.75C93.712 0 76.5 17.212 76.5 38.25v439.875c0 21.037 17.212 38.25 38.25 38.25h286.875c21.037 0 38.25-17.213 38.25-38.25V133.876L325.125 0zm0 28.688l89.888 105.188H344.25c-9.562 0-19.125-9.562-19.125-19.125V28.688zm95.625 449.437c0 9.562-7.65 19.125-19.125 19.125H114.75c-9.562 0-19.125-7.65-19.125-19.125V38.25c0-9.562 7.65-19.125 19.125-19.125H306v95.625c0 21.038 17.213 38.25 38.25 38.25h76.5v325.125z"/><path d="M133.875 306H382.5v19.125H133.875zM133.875 191.25H382.5v19.125H133.875zM133.875 248.625H382.5v19.125H133.875z"/></symbol><symbol id="document-result-icon" viewBox="0 0 32 32"><g fill="#010002"><path d="M24 14.059V5.584L18.414 0H0v32h24v-.059c4.499-.5 7.998-4.31 8-8.941a8.998 8.998 0 00-8-8.941zM17.998 2.413L21.586 6h-3.588V2.413zM2 30V1.998h14v6.001h6v6.06A8.957 8.957 0 0017.348 16H4v2h11.517a8.952 8.952 0 00-.994 2H4v2h10.059a8.974 8.974 0 003.291 8H2zm21-.117A6.898 6.898 0 0116.115 23 6.898 6.898 0 0123 16.115 6.898 6.898 0 0129.883 23 6.898 6.898 0 0123 29.883z"/><path d="M4 12h16v2H4zM26 19l-4 4-2-2-2 2 4 4 6-6z"/></g></symbol><symbol id="download-cloud-icon" viewBox="0 0 32 32"><g fill="#39B29D"><path d="M18 13.5h-4v8h-3l5 6 5-6h-3z"/><path d="M27.586 12.712a6.504 6.504 0 00-7.932-3.946 9 9 0 00-16.652 4.537A6.002 6.002 0 000 18.5c0 3.312 2.688 6 6 6h4.5l-1.667-2H5.997a4.001 4.001 0 01-.91-7.896 7 7 0 0113.615-3.129 4.5 4.5 0 017.271 3.025h.03a4 4 0 010 8h-2.836l-1.667 2H26c3.312 0 6-2.693 6-6a6.002 6.002 0 00-4.414-5.788z"/></g></symbol><symbol id="enter-comment-icon" viewBox="0 0 792 792"><path d="M569.633 792c-12.053 0-24.222-6.026-36.157-18.001L208.177 448.7c-29.082-29.042-29.082-76.358 0-105.4L533.476 18.001C545.411 6.026 557.58 0 569.633 0c16.602 0 36.002 12.519 36.002 47.86v696.281c0 35.34-19.401 47.859-36.002 47.859zM566.25 40.939c-1.399 1.011-3.188 2.488-5.287 4.549L235.702 370.787c-13.879 13.88-13.879 36.507 0 50.426l325.3 325.299c2.061 2.061 3.849 3.538 5.248 4.51.272-1.711.506-4.043.506-6.92V47.86c0-2.916-.234-5.171-.506-6.921z"/></symbol><symbol id="file-download-icon" viewBox="0 0 24 24"><path d="M19 9h-4V3H9v6H5l7 7 7-7zM5 18v2h14v-2H5z"/></symbol><symbol id="left-arrow_icon-icons.com_73519"><path d="M222.979 5.424C219.364 1.807 215.08 0 210.132 0c-4.949 0-9.233 1.807-12.848 5.424L69.378 133.331c-3.615 3.617-5.424 7.898-5.424 12.847s1.809 9.233 5.424 12.847l127.906 127.907c3.614 3.617 7.898 5.428 12.848 5.428 4.948 0 9.232-1.811 12.847-5.428 3.617-3.614 5.427-7.898 5.427-12.847V18.271c-.001-4.949-1.81-9.229-5.427-12.847z"/></symbol><symbol id="message-icon" viewBox="0 0 64 54"><g stroke="#6B6C6E" stroke-width="2" fill="none" fill-rule="evenodd"><path d="M19.2 40.3c-1.4-.4-2.8-.9-4-1.5-8.5-3.6-14.1-10-14.1-17.3C1.1 10.2 14.7 1 31.6 1s30.5 9.2 30.5 20.5S48.5 42 31.6 42c-.8 0-1.7 0-2.5-.1h0L9.2 51l6-12.1M17.2 14H35M17.2 21H45M17.2 28H48"/></g></symbol><symbol id="paperplane-icon" viewBox="0 0 110 110"><path d="M108.949 12.061c-.338-.721-1.036-1.09-1.774-1.303-.72-.209-1.476-.289-2.188-.518-1.526-.489-2.949-.354-4.352.442-3.756 2.134-7.812 3.614-11.788 5.253-4.079 1.68-8.25 3.13-12.372 4.701-9.558 3.641-19.216 6.974-29.073 9.723-4.143 1.155-8.231 2.507-12.38 3.639-10.382 2.83-20.599 6.195-30.894 9.311-1.639.497-2.783 1.589-3.805 2.85-.584.723-.342 2.097.428 2.604.534.353 1.126.627 1.714.886.983.436 2.024.756 2.972 1.254 3.825 2.008 7.866 3.499 11.868 5.087 5.009 1.986 9.887 4.253 14.669 6.74 1.412.733 2.15 1.578 1.904 3.258a75.105 75.105 0 00-.643 6.424c-.323 5.376-.576 10.758-.916 17.267 0 1.461-.003 4.049.001 6.637.001.43-.001.865.057 1.29a2.774 2.774 0 002.325 2.363c1.447.218 2.755.007 3.888-1.07 1.962-1.866 3.752-3.866 5.233-6.136a39.404 39.404 0 015.309-6.492c2.296-2.273 4.466-4.674 6.693-7.017.519-.546.993-1.165 1.602-1.582.39-.267.997-.321 1.495-.294.404.021.795.301 1.188.473 4.345 1.89 8.705 3.74 13.026 5.682 3.833 1.721 7.717 3.393 11.122 5.885 1.703 1.245 3.661 1.793 5.514 2.621 1.048.469 2.082.143 2.979-.662.907-.811 1.518-1.794 2.057-2.863 2.247-4.463 3.693-9.164 4.431-14.105.412-2.764.847-5.537 1.511-8.249 1.05-4.295 1.668-8.657 2.361-13.011.676-4.245 1.207-8.514 2.377-12.675.816-2.897 1.437-5.851 2.135-8.78 1.172-4.931 1.662-9.969 2.326-14.977.219-1.63-.312-3.189-1-4.656zM19.534 47.627c-.024.303.009.748-.119 1.142-.076.234-.471.589-.608.544-1.807-.594-3.594-1.249-5.384-1.896a.552.552 0 01-.2-.193c.13-.161.252-.404.422-.447a157.71 157.71 0 014.93-1.184c.548-.12.938.313.959.957.009.318 0 .638 0 1.077zm8.239-2.998c-.54 2.334-.478 4.699-.441 7.064.002.203-.036.441-.146.605-.095.143-.369.327-.47.282-.869-.392-1.775-.748-2.56-1.277-.835-.566-1.251-1.453-1.268-2.495-.009-.538-.046-1.075-.066-1.517.15-3.173-.067-2.676 2.733-3.534.406-.124.847-.146 1.274-.186.487-.049 1.063.545.944 1.058zm6.294 11.155c-.13.103-.399.121-.57.064-1.532-.497-2.604-1.422-2.889-3.102-.159-.947-.421-1.878-.561-2.827-.301-2.004-.554-4.016-.822-6.025-.075-.577.212-1.073.761-1.235a87.451 87.451 0 013.087-.842c.772-.197 1.275.232 1.025.989-.093 2.665-.202 5.331-.271 7.997-.038 1.495-.065 2.995.433 4.445.05.147-.063.432-.193.536zm13.931-18.228c.404-.136.832-.278 1.248-.271.251.006.694.273.713.457.098.964.014 1.946.135 2.904.105.84.318 1.688.628 2.475.351.887 1.218 1.301 2.092 1.18.86-.119 1.617-.803 1.633-1.743a64.122 64.122 0 00-.137-5.476c-.076-1.11-.146-1.191.927-1.544 2.555-.846 5.127-1.643 7.68-2.495 3.267-1.092 6.52-2.228 9.784-3.327.377-.127.783-.163 1.18-.232-.002-.033.002-.062-.003-.098.058-.006.117-.01.176-.015.108-.112.216-.226.341-.317.068-.05.196-.019.298-.023-.067.096-.115.249-.203.277a1.904 1.904 0 01-.436.064l-.1.101c-.024.005-.049.008-.073.012.025.597-.475.856-.86 1.136-7.242 5.272-14.03 11.104-20.832 16.921-.572.488-1.215.9-1.781 1.396-1.801 1.575-2.289 1.989-3.188-.888-.223-.713-.39-1.467-.428-2.21a166.12 166.12 0 01-.19-6.469c-.016-1.202.178-1.408 1.396-1.815zm-10.183 4.526c-.054-1.101.068-1.509 1.294-1.849 1.03-.284 2.032-.665 3.056-.968.747-.222 1.225.225.99 1.019-.101 2.352-.208 4.702-.299 7.053-.074 1.895.333 3.592 1.832 4.936.678.607.611.74-.027 1.213-1.031.766-2.062 1.533-3.119 2.262-.648.447-1.031.309-1.669-.287-.653-.611-1.041-1.356-1.286-2.185a5.65 5.65 0 01-.215-1.261 999.623 999.623 0 01-.557-9.933zm21.53 22.52c-3.912 4.013-7.598 8.217-10.993 12.678a18.89 18.89 0 01-2.163 2.395c-2.614 2.428-5.005 5.041-6.976 8.024-.107.163-.342.243-.516.361-.11-.251-.294-.496-.312-.753-.038-.535.022-1.076.024-1.614.006-1.401.002-2.802.002-4.36.188-4.682.362-9.521.598-14.357.042-.844.291-1.689.533-2.508.29-.978.968-1.653 1.909-2.062 3.702-1.606 6.891-3.932 9.704-6.812 1.272-1.305 2.584-2.515 4.448-3.081.965-.294 1.76-1.198 2.592-1.875 4.676-3.804 9.338-7.625 14.008-11.438 4.599-3.754 9.594-6.931 14.635-10.037 1.375-.848 2.73-1.724 4.102-2.576.049-.03.188.017.237.071.057.065.114.202.083.26-.15.282-.3.57-.501.812-4.946 5.97-9.86 11.965-14.863 17.885-2.502 2.959-5.196 5.754-7.75 8.671-2.126 2.429-4.17 4.931-6.258 7.395-.835.984-1.643 1.997-2.543 2.921zm42.814-38.524c-1.208 4.797-2.511 9.571-3.606 14.394a113.541 113.541 0 00-1.82 10.156c-.586 4.379-1.548 8.68-2.349 13.017a69.912 69.912 0 01-.708 3.476c-.296 1.246-.498 2.503-1.376 3.571-.688.837-.781 1.965-.931 3.049-.339 2.447-.781 4.881-1.202 7.317a10.093 10.093 0 01-.407 1.554c-.422 1.221-.787 1.343-1.864.761-2.65-1.435-5.292-2.883-7.976-4.252-1.242-.635-2.582-1.069-3.855-1.639-3.762-1.678-7.158-3.959-10.449-6.407-.686-.509-.709-.888-.149-1.614 2.495-3.243 4.996-6.482 7.492-9.725.131-.171.256-.348.374-.527 2.665-4.069 5.818-7.744 9.072-11.345.715-.792 1.41-1.677 1.828-2.642.662-1.529 1.704-2.727 2.775-3.938 4.279-4.847 8.541-9.711 12.821-14.557.641-.724 1.346-1.388 2.03-2.071.066-.066.211-.131.275-.101.081.035.117.171.238.374-.057.319-.11.74-.213 1.149z" fill-rule="evenodd" clip-rule="evenodd"/></symbol><symbol id="pen-icon" viewBox="0 0 386.375 386.375"><path d="M21.05 286.875l76.5 76.5-1.9 3.8-95.6 19.2 19.1-95.6 1.9-3.9zm13.6-14.1l77.1 77.1 216.4-216.399-77.101-77.1L34.65 272.775zm340.2-238.4l-23-22.9c-15.3-15.3-38.199-15.3-53.5 0l-32.5 32.5 76.5 76.5 32.5-32.5c15.3-15.3 15.3-40.2 0-53.6z"/></symbol><symbol id="trash-icon" viewBox="0 0 98 137"><style><![CDATA[.st0{fill:#EF3E42}.st1{fill:#FFFFFF}.st3{fill-rule:evenodd;clip-rule:evenodd;fill:#FFFFFF}]]></style><path d="M75.6 44.8v73c0 3.4-2.8 6.2-6.2 6.2H21.3c-3.4 0-6.2-2.8-6.2-6.2v-73h60.5zm-15.7 8.1v62.8h3.6V52.9h-3.6zm-16.3 0v62.8h3.6V52.9h-3.6zm-16.3 0v62.8h3.6V52.9h-3.6zm4-25v-5.2c0-3.3 2.6-5.9 5.9-5.9h16.4c3.3 0 5.9 2.6 5.9 5.9v5.2h18.1c3.4 0 6.2 2.8 6.2 6.2v4.3H7V34c0-3.4 2.8-6.2 6.2-6.2h18.1v.1zm5.9-7.1c-1 0-1.8.8-1.8 1.8v5.2h20.1v-5.2c0-1-.8-1.8-1.8-1.8H37.2z"/><rect id="_x3C_Slice_x3E__100_" fill="none"/></symbol></svg>